<svg width="82" height="80" viewBox="0 0 82 80" fill="none" xmlns="http://www.w3.org/2000/svg">
<path fill-rule="evenodd" clip-rule="evenodd" d="M38.2336 0.996323C44.039 -0.00454069 50.4532 -0.917596 55.6752 1.7738C60.8931 4.46307 63.3855 10.3717 66.2537 15.4378C68.8305 19.989 69.5535 25.1449 71.6224 29.9409C74.1236 35.739 81.3549 40.6814 79.7772 46.7866C78.1834 52.9541 68.8044 53.3471 64.3763 57.9817C60.3962 62.1472 59.7305 68.6696 55.3167 72.3871C50.5061 76.4387 44.563 79.9892 38.2336 80C31.9036 80.0108 26.3889 75.9037 21.1219 72.4455C16.2756 69.2636 12.1941 65.2336 8.72499 60.6255C5.3298 56.1156 2.48794 51.2397 1.06461 45.8031C-0.378695 40.2901 -0.103631 34.6177 0.431964 28.9489C1.01988 22.7263 -0.22855 15.1544 4.36742 10.8459C9.12775 6.3833 17.2009 9.15326 23.5037 7.32018C28.7057 5.80723 32.8907 1.91744 38.2336 0.996323Z" fill="url(#paint0_linear)"/>
<path d="M21.8355 40.5659V44H20.2296V34.7578H23.7652C24.7977 34.7578 25.6166 35.0265 26.2217 35.564C26.8311 36.1014 27.1358 36.8123 27.1358 37.6968C27.1358 38.6024 26.8375 39.307 26.2408 39.8105C25.6483 40.3141 24.8168 40.5659 23.7462 40.5659H21.8355ZM21.8355 39.2773H23.7652C24.3365 39.2773 24.7724 39.144 25.0728 38.8774C25.3733 38.6066 25.5235 38.2173 25.5235 37.7095C25.5235 37.2101 25.3712 36.8123 25.0665 36.5161C24.7618 36.2157 24.3428 36.0612 23.8096 36.0527H21.8355V39.2773ZM31.3316 44.127C30.3541 44.127 29.5606 43.8201 28.9512 43.2065C28.3461 42.5887 28.0435 41.7677 28.0435 40.7437V40.5532C28.0435 39.8677 28.1747 39.2562 28.4371 38.7188C28.7037 38.1771 29.0761 37.756 29.5543 37.4556C30.0325 37.1551 30.5657 37.0049 31.1539 37.0049C32.0891 37.0049 32.8106 37.3032 33.3184 37.8999C33.8305 38.4966 34.0865 39.3408 34.0865 40.4326V41.0547H29.5987C29.6452 41.6217 29.8336 42.0703 30.1636 42.4004C30.4979 42.7305 30.9169 42.8955 31.4205 42.8955C32.1272 42.8955 32.7027 42.6099 33.147 42.0386L33.9786 42.832C33.7035 43.2425 33.3353 43.562 32.8741 43.7905C32.4171 44.0148 31.9029 44.127 31.3316 44.127ZM31.1475 38.2427C30.7243 38.2427 30.3816 38.3908 30.1192 38.687C29.8611 38.9832 29.696 39.3958 29.6241 39.9248H32.563V39.8105C32.5292 39.2943 32.3917 38.9049 32.1505 38.6426C31.9092 38.376 31.5749 38.2427 31.1475 38.2427ZM38.8853 38.541C38.6822 38.5072 38.4727 38.4902 38.2569 38.4902C37.5502 38.4902 37.0741 38.7611 36.8287 39.3027V44H35.2862V37.1318H36.7589L36.7969 37.8999C37.1693 37.3032 37.6856 37.0049 38.3458 37.0049C38.5658 37.0049 38.7478 37.0345 38.8917 37.0938L38.8853 38.541ZM43.7095 42.1338C43.7095 41.8587 43.5953 41.6493 43.3668 41.5054C43.1425 41.3615 42.768 41.2345 42.2432 41.1245C41.7185 41.0145 41.2805 40.8748 40.9293 40.7056C40.1591 40.3332 39.774 39.7936 39.774 39.0869C39.774 38.4945 40.0237 37.9993 40.523 37.6016C41.0224 37.2038 41.6571 37.0049 42.4273 37.0049C43.2483 37.0049 43.9105 37.208 44.4141 37.6143C44.9219 38.0205 45.1758 38.5474 45.1758 39.1948H43.6334C43.6334 38.8986 43.5233 38.6532 43.3033 38.4585C43.0832 38.2596 42.7912 38.1602 42.4273 38.1602C42.0888 38.1602 41.8116 38.2384 41.5958 38.395C41.3842 38.5516 41.2784 38.7611 41.2784 39.0234C41.2784 39.2604 41.3778 39.4445 41.5767 39.5757C41.7756 39.7069 42.1776 39.8402 42.7828 39.9756C43.3879 40.1068 43.8619 40.2655 44.2047 40.4517C44.5517 40.6336 44.8077 40.8537 44.9727 41.1118C45.142 41.37 45.2266 41.6831 45.2266 42.0513C45.2266 42.6691 44.9706 43.1706 44.4586 43.5557C43.9465 43.9365 43.2758 44.127 42.4464 44.127C41.8835 44.127 41.3821 44.0254 40.942 43.8223C40.5019 43.6191 40.1591 43.3398 39.9136 42.9844C39.6682 42.6289 39.5455 42.2459 39.5455 41.8354H41.0435C41.0647 42.1994 41.2022 42.4808 41.4561 42.6797C41.71 42.8743 42.0464 42.9717 42.4654 42.9717C42.8716 42.9717 43.1806 42.8955 43.3922 42.7432C43.6037 42.5866 43.7095 42.3835 43.7095 42.1338ZM46.2867 40.5024C46.2867 39.8296 46.42 39.2244 46.6866 38.687C46.9532 38.1453 47.3277 37.7306 47.8101 37.4429C48.2925 37.1509 48.8469 37.0049 49.4732 37.0049C50.4 37.0049 51.1511 37.3032 51.7266 37.8999C52.3064 38.4966 52.6195 39.2879 52.6661 40.2739L52.6724 40.6357C52.6724 41.3128 52.5412 41.918 52.2789 42.4512C52.0207 42.9844 51.6483 43.397 51.1617 43.689C50.6793 43.981 50.1207 44.127 49.4859 44.127C48.5168 44.127 47.7403 43.8053 47.1563 43.1621C46.5766 42.5146 46.2867 41.6535 46.2867 40.5786V40.5024ZM47.8292 40.6357C47.8292 41.3424 47.9752 41.8968 48.2672 42.2988C48.5591 42.6966 48.9654 42.8955 49.4859 42.8955C50.0064 42.8955 50.4105 42.6924 50.6983 42.2861C50.9903 41.8799 51.1363 41.2853 51.1363 40.5024C51.1363 39.8084 50.9861 39.2583 50.6856 38.8521C50.3894 38.4458 49.9852 38.2427 49.4732 38.2427C48.9696 38.2427 48.5697 38.4437 48.2735 38.8457C47.9773 39.2435 47.8292 39.8402 47.8292 40.6357ZM55.4083 37.1318L55.4527 37.9253C55.9605 37.3117 56.627 37.0049 57.4522 37.0049C58.8825 37.0049 59.6104 37.8237 59.6358 39.4614V44H58.0933V39.5503C58.0933 39.1144 57.9981 38.7928 57.8077 38.5854C57.6215 38.3739 57.3147 38.2681 56.8873 38.2681C56.2652 38.2681 55.8018 38.5495 55.4971 39.1123V44H53.9547V37.1318H55.4083ZM65.317 44C65.2492 43.8688 65.19 43.6551 65.1392 43.3589C64.6483 43.8709 64.0474 44.127 63.3365 44.127C62.6467 44.127 62.0839 43.9302 61.648 43.5366C61.2121 43.1431 60.9942 42.6564 60.9942 42.0767C60.9942 41.3446 61.265 40.7839 61.8067 40.3945C62.3526 40.001 63.1312 39.8042 64.1426 39.8042H65.0884V39.3535C65.0884 38.998 64.989 38.7145 64.7901 38.5029C64.5912 38.2871 64.2886 38.1792 63.8824 38.1792C63.5311 38.1792 63.2434 38.2681 63.0191 38.4458C62.7948 38.6193 62.6827 38.8415 62.6827 39.1123H61.1402C61.1402 38.7357 61.265 38.3844 61.5147 38.0586C61.7644 37.7285 62.1029 37.4704 62.5303 37.2842C62.962 37.098 63.4423 37.0049 63.9713 37.0049C64.7753 37.0049 65.4164 37.208 65.8946 37.6143C66.3728 38.0163 66.6182 38.5833 66.6309 39.3154V42.4131C66.6309 43.0309 66.7177 43.5239 66.8912 43.8921V44H65.317ZM63.6221 42.8892C63.9268 42.8892 64.2125 42.8151 64.4791 42.667C64.7499 42.5189 64.953 42.32 65.0884 42.0703V40.7754H64.2569C63.6856 40.7754 63.2561 40.8748 62.9683 41.0737C62.6806 41.2726 62.5367 41.554 62.5367 41.918C62.5367 42.2142 62.634 42.4512 62.8287 42.6289C63.0276 42.8024 63.2921 42.8892 63.6221 42.8892ZM21.7213 59H20.1788V49.25H21.7213V59ZM25.0474 59H23.5049V52.1318H25.0474V59ZM23.4097 50.3481C23.4097 50.1112 23.4838 49.9144 23.6319 49.7578C23.7842 49.6012 24.0001 49.5229 24.2794 49.5229C24.5587 49.5229 24.7745 49.6012 24.9268 49.7578C25.0792 49.9144 25.1553 50.1112 25.1553 50.3481C25.1553 50.5809 25.0792 50.7756 24.9268 50.9321C24.7745 51.0845 24.5587 51.1606 24.2794 51.1606C24.0001 51.1606 23.7842 51.0845 23.6319 50.9321C23.4838 50.7756 23.4097 50.5809 23.4097 50.3481ZM28.3799 57.7686H32.0362V59H26.463V57.9907L29.9478 53.376H26.5264V52.1318H31.9029V53.1094L28.3799 57.7686ZM37.3746 59C37.3069 58.8688 37.2476 58.6551 37.1968 58.3589C36.706 58.8709 36.105 59.127 35.3941 59.127C34.7043 59.127 34.1415 58.9302 33.7056 58.5366C33.2698 58.1431 33.0518 57.6564 33.0518 57.0767C33.0518 56.3446 33.3227 55.7839 33.8643 55.3945C34.4102 55.001 35.1889 54.8042 36.2003 54.8042H37.1461V54.3535C37.1461 53.998 37.0466 53.7145 36.8477 53.5029C36.6488 53.2871 36.3463 53.1792 35.94 53.1792C35.5888 53.1792 35.301 53.2681 35.0767 53.4458C34.8524 53.6193 34.7403 53.8415 34.7403 54.1123H33.1978C33.1978 53.7357 33.3227 53.3844 33.5723 53.0586C33.822 52.7285 34.1605 52.4704 34.588 52.2842C35.0196 52.098 35.4999 52.0049 36.0289 52.0049C36.8329 52.0049 37.474 52.208 37.9522 52.6143C38.4304 53.0163 38.6758 53.5833 38.6885 54.3154V57.4131C38.6885 58.0309 38.7753 58.5239 38.9488 58.8921V59H37.3746ZM35.6797 57.8892C35.9844 57.8892 36.2701 57.8151 36.5367 57.667C36.8075 57.5189 37.0106 57.32 37.1461 57.0703V55.7754H36.3145C35.7432 55.7754 35.3137 55.8748 35.0259 56.0737C34.7382 56.2726 34.5943 56.554 34.5943 56.918C34.5943 57.2142 34.6916 57.4512 34.8863 57.6289C35.0852 57.8024 35.3497 57.8892 35.6797 57.8892ZM40.0152 55.5151C40.0152 54.4572 40.2606 53.6087 40.7515 52.9697C41.2424 52.3265 41.9005 52.0049 42.7256 52.0049C43.4535 52.0049 44.0417 52.2588 44.4903 52.7666V49.25H46.0328V59H44.6363L44.5601 58.2891C44.0989 58.8477 43.4831 59.127 42.713 59.127C41.9089 59.127 41.2572 58.8032 40.7579 58.1558C40.2628 57.5083 40.0152 56.6281 40.0152 55.5151ZM41.5577 55.6484C41.5577 56.3467 41.691 56.8926 41.9576 57.2861C42.2284 57.6755 42.6114 57.8701 43.1065 57.8701C43.737 57.8701 44.1983 57.5887 44.4903 57.0259V54.0933C44.2068 53.5431 43.7497 53.2681 43.1192 53.2681C42.6199 53.2681 42.2348 53.467 41.9639 53.8647C41.6931 54.2583 41.5577 54.8529 41.5577 55.6484ZM47.3531 55.5024C47.3531 54.8296 47.4864 54.2244 47.753 53.687C48.0196 53.1453 48.3941 52.7306 48.8765 52.4429C49.3589 52.1509 49.9133 52.0049 50.5396 52.0049C51.4664 52.0049 52.2175 52.3032 52.793 52.8999C53.3728 53.4966 53.6859 54.2879 53.7325 55.2739L53.7388 55.6357C53.7388 56.3128 53.6076 56.918 53.3453 57.4512C53.0871 57.9844 52.7147 58.397 52.2281 58.689C51.7457 58.981 51.1871 59.127 50.5523 59.127C49.5832 59.127 48.8067 58.8053 48.2227 58.1621C47.643 57.5146 47.3531 56.6535 47.3531 55.5786V55.5024ZM48.8956 55.6357C48.8956 56.3424 49.0416 56.8968 49.3336 57.2988C49.6255 57.6966 50.0318 57.8955 50.5523 57.8955C51.0728 57.8955 51.4769 57.6924 51.7647 57.2861C52.0567 56.8799 52.2027 56.2853 52.2027 55.5024C52.2027 54.8084 52.0525 54.2583 51.752 53.8521C51.4558 53.4458 51.0517 53.2427 50.5396 53.2427C50.036 53.2427 49.6361 53.4437 49.3399 53.8457C49.0437 54.2435 48.8956 54.8402 48.8956 55.6357Z" fill="white"/>
<defs>
<linearGradient id="paint0_linear" x1="40" y1="0" x2="40" y2="80" gradientUnits="userSpaceOnUse">
<stop stop-color="#FC9C2A"/>
<stop offset="1" stop-color="#FD4C7E"/>
</linearGradient>
</defs>
</svg>
