<svg width="84" height="80" viewBox="0 0 84 80" fill="none" xmlns="http://www.w3.org/2000/svg">
<path fill-rule="evenodd" clip-rule="evenodd" d="M37.983 0.42589C43.6428 1.39151 47.5757 6.37431 52.7518 8.85742C57.935 11.3439 65.1739 10.491 68.5929 15.1102C72.037 19.7632 68.6076 26.584 70.0261 32.1952C71.4864 37.9713 78.2558 42.5792 77.0103 48.4053C75.77 54.2066 68.7633 56.6824 64.0267 60.2584C60.1197 63.208 55.4676 64.7132 51.5397 67.6349C46.6365 71.282 43.9125 78.1474 37.983 79.6302C32.1553 81.0876 26.1274 77.9413 20.711 75.3445C15.2904 72.7458 9.60517 69.7289 6.54431 64.5578C3.53556 59.4748 3.98904 53.1429 4.0741 47.2379C4.14744 42.1457 5.82806 37.3932 7.00695 32.4386C8.17645 27.5235 8.88991 22.6002 11.0259 18.0212C13.5212 12.6718 15.6233 6.59397 20.5681 3.36648C25.5596 0.108418 32.1061 -0.576794 37.983 0.42589Z" fill="url(#paint0_linear)"/>
<path d="M31.8382 53.6709H29.445V42.1103L25.9146 43.3168V41.2895L31.5316 39.2227H31.8382V53.6709Z" fill="white"/>
<path d="M46.5237 53.6709H36.8422V52.0194L41.6384 46.7879C42.3307 46.0166 42.8219 45.3738 43.1119 44.8595C43.4086 44.3387 43.557 43.8179 43.557 43.297C43.557 42.6114 43.3625 42.0576 42.9735 41.6357C42.5911 41.2137 42.0736 41.0027 41.4209 41.0027C40.6429 41.0027 40.0397 41.2401 39.6111 41.7148C39.1826 42.1895 38.9683 42.8388 38.9683 43.6629H36.5653C36.5653 42.7861 36.763 41.9983 37.1586 41.2994C37.5608 40.594 38.1311 40.0468 38.8695 39.6578C39.6144 39.2688 40.4715 39.0743 41.4407 39.0743C42.8383 39.0743 43.9393 39.4271 44.7437 40.1325C45.5546 40.8313 45.96 41.8005 45.96 43.0399C45.96 43.7585 45.7557 44.5134 45.3469 45.3046C44.9447 46.0891 44.2822 46.9824 43.3592 47.9845L39.8386 51.7523H46.5237V53.6709Z" fill="white"/>
<path d="M57.7381 47.6088C57.7381 49.6789 57.3491 51.2414 56.5712 52.2963C55.7998 53.3445 54.623 53.8686 53.0407 53.8686C51.4848 53.8686 50.3113 53.3577 49.5202 52.3358C48.7356 51.3073 48.3335 49.7877 48.3137 47.7769V45.2848C48.3137 43.2146 48.6994 41.662 49.4707 40.627C50.2487 39.5919 51.4321 39.0743 53.021 39.0743C54.5966 39.0743 55.7702 39.5787 56.5415 40.5874C57.3195 41.5961 57.7183 43.1059 57.7381 45.1167V47.6088ZM55.335 44.9189C55.335 43.5674 55.1504 42.5784 54.7812 41.9521C54.412 41.3192 53.8253 41.0027 53.021 41.0027C52.2364 41.0027 51.6595 41.3027 51.2903 41.9027C50.9211 42.496 50.7267 43.4256 50.7069 44.6914V47.9549C50.7069 49.2998 50.8948 50.3019 51.2706 50.9612C51.6463 51.6205 52.2364 51.9501 53.0407 51.9501C53.8121 51.9501 54.3824 51.6469 54.7516 51.0403C55.1208 50.4272 55.3153 49.4712 55.335 48.1724V44.9189Z" fill="white"/>
<defs>
<linearGradient id="paint0_linear" x1="40.5812" y1="0" x2="40.5812" y2="80" gradientUnits="userSpaceOnUse">
<stop stop-color="#F84D8A"/>
<stop offset="1" stop-color="#EA4646"/>
</linearGradient>
</defs>
</svg>
